HIERARCHY
ROOT Hips
{
	OFFSET 0.00000 0.00000 0.00000
	CHANNELS 6 Xposition Yposition Zposition Zrotation Yrotation Xrotation 
	JOINT LHipJoint
	{
		OFFSET 0 0 0
		CHANNELS 3 Zrotation Yrotation Xrotation
		JOINT LeftHip
		{
			OFFSET 1.57338 -1.94743 0.52196
			CHANNELS 3 Zrotation Yrotation Xrotation
			JOINT LeftKnee
			{
				OFFSET 2.60333 -7.15259 0.00000
				CHANNELS 3 Zrotation Yrotation Xrotation
				JOINT LeftAnkle
				{
					OFFSET 2.77855 -7.63400 0.00000
					CHANNELS 3 Zrotation Yrotation Xrotation
					JOINT LeftToe
					{
						OFFSET 0.19847 -0.54529 2.28466
						CHANNELS 3 Zrotation Yrotation Xrotation
						End Site
						{
							OFFSET 0.00000 -0.00000 1.17993
						}
					}
				}
			}
		}
	}
	JOINT RHipJoint
	{
		OFFSET 0 0 0
		CHANNELS 3 Zrotation Yrotation Xrotation
		JOINT RightHip
		{
			OFFSET -1.61527 -1.94743 0.52196
			CHANNELS 3 Zrotation Yrotation Xrotation
			JOINT RightKnee
			{
				OFFSET -2.53829 -6.97390 0.00000
				CHANNELS 3 Zrotation Yrotation Xrotation
				JOINT RightAnkle
				{
					OFFSET -2.80762 -7.71387 0.00000
					CHANNELS 3 Zrotation Yrotation Xrotation
					JOINT RightToe
					{
						OFFSET -0.30536 -0.83898 2.28801
						CHANNELS 3 Zrotation Yrotation Xrotation
						End Site
						{
							OFFSET -0.00000 -0.00000 1.21323
						}
					}
				}
			}
		}
	}
	JOINT lowerback
	{
		OFFSET 0 0 0
		CHANNELS 3 Zrotation Yrotation Xrotation
		JOINT Chest
		{
			OFFSET -0.04381 1.99497 -0.19778
			CHANNELS 3 Zrotation Yrotation Xrotation
			JOINT Chest2
			{
				OFFSET -0.01959 2.01295 -0.04372
				CHANNELS 3 Zrotation Yrotation Xrotation
				JOINT lowerneck
				{
					OFFSET 0 0 0
					CHANNELS 3 Zrotation Yrotation Xrotation
					JOINT Neck
					{
						OFFSET -0.05459 1.76913 0.09708
						CHANNELS 3 Zrotation Yrotation Xrotation
						JOINT Head
						{
							OFFSET 0.09461 1.77368 -0.11172
							CHANNELS 3 Zrotation Yrotation Xrotation
							End Site
							{
								OFFSET 0.03812 1.78157 -0.04834
							}
						}
					}
				}
				JOINT LeftCollar
				{
					OFFSET 0 0 0
					CHANNELS 3 Zrotation Yrotation Xrotation
					JOINT LeftShoulder
					{
						OFFSET 3.50922 1.24034 -0.28866
CHANNELS 3 Zrotation Xrotation Yrotation
						JOINT LeftElbow
						{
OFFSET 0 -5.401880 0.000000
CHANNELS 3 Zrotation Xrotation Yrotation
							JOINT LeftWrist
							{
OFFSET 0 -3.685590 0.000000
CHANNELS 3 Zrotation Xrotation Yrotation
								JOINT lhand
								{
									OFFSET 0 0 0
CHANNELS 3 Zrotation Xrotation Yrotation
									JOINT LFingers
									{
OFFSET 0 -0.617530 0.000000
CHANNELS 3 Zrotation Xrotation Yrotation
										End Site
										{
OFFSET 0 -0.497870 0.000000
										}
									}
								}
								JOINT LThumb
								{
OFFSET 0 0.000000 0.000000
CHANNELS 3 Zrotation Xrotation Yrotation
									End Site
									{
OFFSET 0 -0.505470 0.505470
									}
								}
							}
						}
					}
				}
				JOINT RightCollar
				{
					OFFSET 0 0 0
					CHANNELS 3 Zrotation Yrotation Xrotation
					JOINT RightShoulder
					{
						OFFSET -2.95373 1.39649 -0.27346
CHANNELS 3 Zrotation Xrotation Yrotation
						JOINT RightElbow
						{
OFFSET 0 -6.106700 -0.000000
CHANNELS 3 Zrotation Xrotation Yrotation
							JOINT RightWrist
							{
OFFSET 0 -3.630520 0.000000
CHANNELS 3 Zrotation Xrotation Yrotation
								JOINT rhand
								{
									OFFSET 0 0 0
CHANNELS 3 Zrotation Xrotation Yrotation
									JOINT RFingers
									{
OFFSET 0 -0.583850 0.000000
CHANNELS 3 Zrotation Xrotation Yrotation
										End Site
										{
OFFSET 0 -0.470710 0.000000
										}
									}
								}
								JOINT RThumb
								{
OFFSET 0 0.000000 0.000000
CHANNELS 3 Zrotation Xrotation Yrotation
									End Site
									{
OFFSET 0 -0.477900 0.477900
									}
								}
							}
						}
					}
				}
			}
		}
	}
}
MOTION
Frames: 4
Frame Time: 0.008333333333333333
6.523269 18.857746 -2.709129 188.192766 82.393802 195.491125 0.000000 0.000000 0.000000 -8.828195 -11.729410 -22.454310 2.267070 9.400979 27.058195 0.707465 7.363169 -20.244276 0.027016 -1.054857 -2.899829 0.000000 0.000000 0.000000 22.068112 20.556824 -12.143298 -1.764074 -8.356236 23.801509 -0.203238 -10.787169 -18.087309 -0.006874 0.533457 -1.465832 -3.525628 -0.958540 9.897696 -5.794395 -1.346271 4.546472 -3.901784 -0.519738 -0.864759 -4.728143 7.790686 -9.585602 0.254581 12.625160 25.143281 2.207942 5.698229 9.179094 0.000000 0.000000 0.000000 0.824930 -35.278061 -46.838063 22.522167 -33.559950 6.873234 32.576208 9.806159 -9.192551 0.000000 0.000000 0.000000 -7.125000 0.000000 0.000000 4.998866 40.800755 0.518683 0.000000 0.000000 0.000000 -8.424709 -23.625894 64.869994 -144.467886 -45.186970 -104.809920 -32.236058 -10.760054 -4.840384 0.000000 0.000000 0.000000 7.125000 0.000000 0.000000 -4.147242 24.262227 -2.084714
6.700430 18.850440 -2.871542 196.906614 84.048833 204.338280 0.000000 0.000000 0.000000 -7.939383 -15.010601 -24.248375 1.959211 8.780476 25.111142 0.218977 14.297431 -22.566697 0.001162 -0.177483 -0.487615 0.000000 0.000000 0.000000 22.331783 21.293212 -11.524797 -1.769481 -8.368384 23.838669 -0.380175 -9.303077 -18.519005 -0.008562 -0.591558 1.625607 -4.496345 -0.658765 9.846845 -6.246036 -1.002368 4.596408 -3.868960 -0.343860 -0.753280 -4.436792 8.232006 -9.505913 -0.185952 13.164436 24.206693 2.023816 5.945172 8.878068 0.000000 0.000000 0.000000 3.716060 -37.953188 -43.490322 17.619507 -27.666928 4.371263 30.137978 10.960268 -8.953520 0.000000 0.000000 0.000000 -7.125000 0.000000 0.000000 2.836546 40.289004 0.329671 0.000000 0.000000 0.000000 -5.736233 -23.828715 64.313016 -136.721642 -49.895730 -99.086291 -33.984133 -17.695966 -9.761430 0.000000 0.000000 0.000000 7.125000 0.000000 0.000000 -4.929359 18.283100 -3.146417
6.921125 18.777921 -3.151314 243.785487 85.037424 250.248476 0.000000 0.000000 0.000000 -7.669118 -10.221887 -26.289744 2.416691 9.684309 27.960706 -0.107164 17.023378 -23.122084 0.185863 2.776073 7.655914 0.000000 0.000000 0.000000 24.834787 23.022588 -9.066918 -1.731656 -8.283275 23.577772 -0.602454 -7.286695 -19.095361 -0.110984 -2.085739 5.744950 -3.167994 -0.117255 9.913068 -6.067859 -0.215014 4.525396 -4.513758 0.047540 -0.847739 -4.091085 9.171317 -9.281040 -1.056798 14.610183 23.978589 1.803003 6.563378 8.833741 0.000000 0.000000 0.000000 6.459429 -36.705283 -37.320653 14.034543 -22.783017 2.842102 30.430840 13.665907 -9.667438 0.000000 0.000000 0.000000 -7.125000 0.000000 0.000000 3.072830 41.136461 0.292903 0.000000 0.000000 0.000000 -2.779421 -24.627632 63.603171 -125.788608 -54.555044 -90.426598 -30.931264 -23.264236 -10.149594 0.000000 0.000000 0.000000 7.125000 0.000000 0.000000 -2.752679 18.199512 -1.757127
7.223367 18.695458 -3.518069 293.497963 84.673471 299.021461 0.000000 0.000000 0.000000 -9.328245 -6.083471 -25.649214 2.771994 10.316482 30.007727 0.405828 15.916513 -26.175880 0.323755 3.654483 10.106807 0.000000 0.000000 0.000000 24.885689 23.876745 -7.379631 -1.928950 -8.716014 24.911187 -0.718066 -5.599203 -19.006765 -0.001416 0.241480 -0.663552 -3.719789 0.988166 8.993840 -6.316227 1.241822 4.282184 -4.594555 0.764692 -0.515406 -3.445191 9.896946 -9.239621 -1.521271 15.728527 24.484051 1.687682 7.071252 9.084551 0.000000 0.000000 0.000000 8.973785 -29.657503 -38.042046 14.379781 -23.273978 2.977243 32.439313 11.336032 -10.211428 0.000000 0.000000 0.000000 -7.125000 0.000000 0.000000 4.866934 41.977898 0.364274 0.000000 0.000000 0.000000 -1.106316 -24.210815 60.543565 -116.808840 -57.101267 -82.991091 -26.630322 -30.615918 -8.998467 0.000000 0.000000 0.000000 7.125000 0.000000 0.000000 0.209094 19.933629 0.125144
